# xmcd
#
# Track frame offsets:
#	150
#	12095
#	24568
#	36743
#	47873
#	60828
#	74688
#	87363
#	100692
#	114130
#	127412
#	141889
#	154121
#	169302
#	181937
#	194573
#	207174
#	220798
#	235507
#	246950
#	259543
#	269299
#	280308
#	291783
#	300543
#
# Disc length: 4161 seconds
#
# Revision: 1
# Processed by: cddbd v1.5.2PL0 Copyright (c) Steve Scherf et al.
# Submitted via: audiograbber 1.83.01
#
DISCID=70103f19
DTITLE=Bill Monroe and His Blue Grass Boys - Bluegrass Big Three - CD1
DYEAR=2010
DGENRE=Bluegrass
TTITLE0=Rocky Road Blues
TTITLE1=Kentucky Waltz
TTITLE2=Footprints In The Snow
TTITLE3=Blue Grass Special
TTITLE4=Heavy Traffic Ahead
TTITLE5=Blue Moon Of Kentucky
TTITLE6=Toy Heart
TTITLE7=Summertime Is Past And Gone
TTITLE8=Wicked Path Of Sin
TTITLE9=I'm Going Back To Old Kentucky
TTITLE10=Little Cabin Home On The Hill
TTITLE11=Blue Grass Breakdown
TTITLE12=Sweetheart, You Done Me Wrong
TTITLE13=Little Community Church
TTITLE14=When You Are Lonely
TTITLE15=Mully And Tenbrooks (The Race Horse Song)
TTITLE16=Blue Grass Stomp
TTITLE17=The Girl In The Blue Velvet Band
TTITLE18=New Mule Skinner Blues
TTITLE19=Uncle Pen
TTITLE20=Blue Moon Of Kentucky
TTITLE21=Cry Cry Darling
TTITLE22=I Saw The Light
TTITLE23=Scotland
TTITLE24=Gotta Travel On
EXTD=CD 1 der Zusammenstellung Bluegrass Big Three
EXTT0=
EXTT1=
EXTT2=
EXTT3=
EXTT4=
EXTT5=
EXTT6=
EXTT7=
EXTT8=
EXTT9=
EXTT10=
EXTT11=
EXTT12=
EXTT13=
EXTT14=
EXTT15=
EXTT16=
EXTT17=
EXTT18=
EXTT19=
EXTT20=
EXTT21=
EXTT22=
EXTT23=
EXTT24=
PLAYORDER=
